<svg xmlns="http://www.w3.org/2000/svg" width="24" height="24" viewBox="0 0 24 24" fill="none" stroke="white" stroke-width="2" stroke-linecap="round" stroke-linejoin="round" class="lucide lucide-siren">
  <!-- White siren icon -->
  <path d="M7 18v-6a5 5 0 1 1 10 0v6"/>
  <path d="M5 21a1 1 0 0 0 1 1h12a1 1 0 0 0 1-1v-1a2 2 0 0 0-2-2H7a2 2 0 0 0-2 2z"/>
  <path d="M21 12h1"/>
  <path d="M18.5 4.5 18 5"/>
  <path d="M2 12h1"/>
  <path d="M12 2v1"/>
  <path d="m4.929 4.929.707.707"/>
  <path d="M12 12v6"/>
  
  <!-- Blinking red dot -->
  <circle cx="20" cy="4" r="3" fill="red" stroke="none" style="animation: blink 1s infinite;">
    <style>
      @keyframes blink {
        0%, 100% { opacity: 1; }
        50% { opacity: 0; }
      }
    </style>
  </circle>
</svg>